<svg viewBox="0 0 512 512" xmlns="http://www.w3.org/2000/svg" id="tree" focusable="false"><path d="M256 0c-33.931 0-64.292 21.084-76.49 52.18-9.071-3.362-18.606-5.063-28.445-5.063-45.302 0-82.156 36.855-82.156 82.157 0 10.717 2.014 21.059 5.998 30.836-29.962 15.653-48.939 46.627-48.939 80.863 0 47.179 35.63 86.097 82.018 90.723 9.12 23.595 34.75 39.664 64.275 39.664 12.944 0 25.62-3.213 36.457-9.141 6.635 10.277 10.569 22.948 9.352 33.406-.493 24.907-6.003 45.048-13.362 64.196-5.614 15.64-13.125 28.838-22.83 40.147a7.287 7.287 0 005.53 12.031h137.19a7.285 7.285 0 005.53-12.03c-28.06-32.705-33.854-75.221-37.083-112.5-.815-9.42 1.51-18.99 6.549-26.94l.205-.322c11.543 7.234 25.446 11.158 39.943 11.158 29.525 0 55.155-16.07 64.275-39.666 46.388-4.626 82.018-43.545 82.018-90.723.002-34.237-18.976-65.21-48.938-80.863 3.984-9.778 5.998-20.12 5.998-30.836-1.7-45.873-43.35-81.403-82.152-82.154-9.839 0-19.372 1.698-28.443 5.06C320.297 21.086 289.937.003 256.006.003z"/></svg>
